<?xml version="1.0" encoding="utf-8"?>
<svg version="1.1" xmlns:xlink="http://www.w3.org/1999/xlink" width="11px" height="20px" xmlns="http://www.w3.org/2000/svg">
  <g transform="matrix(1 0 0 1 -1239 -30 )">
    <path d="M 10.6371527777778 9.12109375  C 10.8790509259259 9.36848958333333  11 9.66145833333333  11 10  C 11 10.3385416666667  10.8790509259259 10.6315104166667  10.6371527777778 10.87890625  L 2.08159722222222 19.62890625  C 1.83969907407407 19.8763020833333  1.55324074074074 20  1.22222222222222 20  C 0.891203703703704 20  0.60474537037037 19.8763020833333  0.362847222222222 19.62890625  C 0.120949074074074 19.3815104166667  0 19.0885416666667  0 18.75  L 0 1.25  C 0 0.91145833333333  0.120949074074074 0.61848958333333  0.362847222222222 0.37109375  C 0.60474537037037 0.123697916666665  0.891203703703704 0  1.22222222222222 0  C 1.55324074074074 0  1.83969907407407 0.123697916666665  2.08159722222222 0.37109375  L 10.6371527777778 9.12109375  Z " fill-rule="nonzero" fill="#ffffff" stroke="none" transform="matrix(1 0 0 1 1239 30 )" />
  </g>
</svg>