<?xml version="1.0" encoding="utf-8"?>
<svg version="1.1" xmlns:xlink="http://www.w3.org/1999/xlink" width="12px" height="12px" viewBox="680 490.5  12 12" xmlns="http://www.w3.org/2000/svg">
  <path d="M 686 490.5  C 689.36 490.5  692 493.14  692 496.5  C 692 499.86  689.36 502.5  686 502.5  C 682.64 502.5  680 499.86  680 496.5  C 680 493.14  682.64 490.5  686 490.5  Z " fill-rule="nonzero" fill="#ffffff" stroke="none" />
  <path d="M 686 491  C 689.08 491  691.5 493.42  691.5 496.5  C 691.5 499.58  689.08 502  686 502  C 682.92 502  680.5 499.58  680.5 496.5  C 680.5 493.42  682.92 491  686 491  Z " stroke-width="1" stroke="#797979" fill="none" />
  <path d="M 686 499.5  C 684.32 499.5  683 498.18  683 496.5  C 683 494.82  684.32 493.5  686 493.5  C 687.68 493.5  689 494.82  689 496.5  C 689 498.18  687.68 499.5  686 499.5  " fill-rule="nonzero" fill="#797979" stroke="none" />
</svg>