<?xml version="1.0" encoding="utf-8"?>
<svg version="1.1" xmlns:xlink="http://www.w3.org/1999/xlink" width="23px" height="20px" xmlns="http://www.w3.org/2000/svg">
  <g transform="matrix(1 0 0 1 -1090 -30 )">
    <path d="M 17.9559151785714 11.7838541666667  C 18.0329241071429 11.8619791666667  18.0714285714286 11.9618055555556  18.0714285714286 12.0833333333333  L 18.0714285714286 16.25  C 18.0714285714286 17.2829861111111  17.7099144345238 18.1662326388889  16.9868861607143 18.8997395833333  C 16.2638578869048 19.6332465277778  15.3932291666667 20  14.375 20  L 3.69642857142857 20  C 2.67819940476191 20  1.80757068452381 19.6332465277778  1.08454241071429 18.8997395833333  C 0.361514136904762 18.1662326388889  0 17.2829861111111  0 16.25  L 0 5.41666666666667  C 0 4.38368055555555  0.361514136904762 3.50043402777778  1.08454241071429 2.76692708333333  C 1.80757068452381 2.03342013888889  2.67819940476191 1.66666666666667  3.69642857142857 1.66666666666667  L 12.7321428571429 1.66666666666667  C 12.8519345238095 1.66666666666667  12.9503348214286 1.70572916666667  13.02734375 1.78385416666667  C 13.1043526785714 1.86197916666667  13.1428571428571 1.96180555555555  13.1428571428571 2.08333333333333  L 13.1428571428571 2.91666666666667  C 13.1428571428571 3.03819444444444  13.1043526785714 3.13802083333333  13.02734375 3.21614583333333  C 12.9503348214286 3.29427083333333  12.8519345238095 3.33333333333333  12.7321428571429 3.33333333333333  L 3.69642857142857 3.33333333333333  C 3.13169642857143 3.33333333333333  2.64825148809524 3.53732638888889  2.24609375 3.9453125  C 1.84393601190476 4.35329861111111  1.64285714285714 4.84375  2 5.41666666666667  L 2 16.25  C 1.64285714285714 16.8229166666667  1.84393601190476 17.3133680555556  2.24609375 17.7213541666667  C 2.64825148809524 18.1293402777778  3.13169642857143 18.3333333333333  3.69642857142857 18  L 14.375 18  C 14.9397321428571 18.3333333333333  15.4231770833333 18.1293402777778  15.8253348214286 17.7213541666667  C 16.2274925595238 17.3133680555556  16.4285714285714 16.8229166666667  16.4285714285714 16.25  L 16.4285714285714 12.0833333333333  C 16.4285714285714 11.9618055555556  16.4670758928571 11.8619791666667  16.5440848214286 11.7838541666667  C 16.62109375 11.7057291666667  16.719494047619 11.6666666666667  16.8392857142857 11.6666666666667  L 17.6607142857143 11.6666666666667  C 17.780505952381 11.6666666666667  17.87890625 11.7057291666667  17.9559151785714 11.7838541666667  Z M 22.7561383928571 0.247395833333333  C 22.918712797619 0.412326388888886  23 0.607638888888886  23 0.833333333333333  L 23 7.5  C 23 7.72569444444444  22.918712797619 7.92100694444444  22.7561383928571 8.0859375  C 22.5935639880952 8.25086805555556  22.4010416666667 8.33333333333333  22.1785714285714 8.33333333333333  C 21.9561011904762 8.33333333333333  21.7635788690476 8.25086805555556  21.6010044642857 8.0859375  L 19.3420758928571 5.79427083333333  L 10.9737723214286 14.2838541666667  C 10.8882068452381 14.3706597222222  10.789806547619 14.4140625  10.6785714285714 14.4140625  C 10.5673363095238 14.4140625  10.4689360119048 14.3706597222222  10.3833705357143 14.2838541666667  L 8.92020089285714 12.7994791666667  C 8.83463541666667 12.7126736111111  8.79185267857143 12.6128472222222  8.79185267857143 12.5  C 8.79185267857143 12.3871527777778  8.83463541666667 12.2873263888889  8.92020089285714 12.2005208333333  L 17.2885044642857 3.7109375  L 15.0295758928571 1.41927083333333  C 14.8670014880952 1.25434027777778  14.7857142857143 1.05902777777778  14.7857142857143 0.833333333333333  C 14.7857142857143 0.607638888888886  14.8670014880952 0.412326388888886  15.0295758928571 0.247395833333333  C 15.192150297619 0.082465277777779  15.3846726190476 0  15.6071428571429 0  L 22.1785714285714 0  C 22.4010416666667 0  22.5935639880952 0.082465277777779  22.7561383928571 0.247395833333333  Z " fill-rule="nonzero" fill="#ffffff" stroke="none" transform="matrix(1 0 0 1 1090 30 )" />
  </g>
</svg>