<?xml version="1.0" encoding="utf-8"?>
<svg version="1.1" xmlns:xlink="http://www.w3.org/1999/xlink" width="12px" height="12px" viewBox="20 276.5  12 12" xmlns="http://www.w3.org/2000/svg">
  <path d="M 26 276.5  C 29.36 276.5  32 279.14  32 282.5  C 32 285.86  29.36 288.5  26 288.5  C 22.64 288.5  20 285.86  20 282.5  C 20 279.14  22.64 276.5  26 276.5  Z " fill-rule="nonzero" fill="#f0f0f0" stroke="none" />
  <path d="M 26 277  C 29.08 277  31.5 279.42  31.5 282.5  C 31.5 285.58  29.08 288  26 288  C 22.92 288  20.5 285.58  20.5 282.5  C 20.5 279.42  22.92 277  26 277  Z " stroke-width="1" stroke="#797979" fill="none" />
  <path d="M 26 285.5  C 24.32 285.5  23 284.18  23 282.5  C 23 280.82  24.32 279.5  26 279.5  C 27.68 279.5  29 280.82  29 282.5  C 29 284.18  27.68 285.5  26 285.5  " fill-rule="nonzero" fill="#797979" stroke="none" />
</svg>