<?xml version="1.0" encoding="utf-8"?>
<svg version="1.1" xmlns:xlink="http://www.w3.org/1999/xlink" width="15px" height="8px" xmlns="http://www.w3.org/2000/svg">
  <g transform="matrix(1 0 0 1 -882 -568 )">
    <path d="M 14.7216796875 6.48611111111111  C 14.9072265625 6.66203703703703  15 6.87037037037037  15 7.11111111111111  C 15 7.35185185185185  14.9072265625 7.56018518518518  14.7216796875 7.73611111111111  C 14.5361328125 7.91203703703704  14.31640625 8  14.0625 8  L 0.9375 8  C 0.68359375 8  0.4638671875 7.91203703703704  0.2783203125 7.73611111111111  C 0.0927734375 7.56018518518518  0 7.35185185185185  0 7.11111111111111  C 0 6.87037037037037  0.0927734375 6.66203703703703  0.2783203125 6.48611111111111  L 6.8408203125 0.263888888888889  C 7.0263671875 0.0879629629629619  7.24609375 0  7.5 0  C 7.75390625 0  7.9736328125 0.0879629629629619  8.1591796875 0.263888888888889  L 14.7216796875 6.48611111111111  Z " fill-rule="nonzero" fill="#000000" stroke="none" transform="matrix(1 0 0 1 882 568 )" />
  </g>
</svg>