<?xml version="1.0" encoding="utf-8"?>
<svg version="1.1" xmlns:xlink="http://www.w3.org/1999/xlink" width="20px" height="20px" xmlns="http://www.w3.org/2000/svg">
  <g transform="matrix(1 0 0 1 -590 -50 )">
    <path d="M 18.4654017857143 18.4654017857143  C 18.5360863095238 18.3947172619048  18.5714285714286 18.3110119047619  18.5714285714286 18.2142857142857  L 18.5714285714286 6.07142857142857  C 18.5714285714286 5.97470238095238  18.5360863095238 5.89099702380952  18.4654017857143 5.8203125  C 18.3947172619048 5.74962797619047  18.3110119047619 5.71428571428571  18.2142857142857 6  L 6.07142857142857 6  C 5.97470238095238 5.71428571428571  5.89099702380952 5.74962797619047  5.8203125 5.8203125  C 5.74962797619048 5.89099702380952  5.71428571428571 5.97470238095238  6 6.07142857142857  L 6 18.2142857142857  C 5.71428571428571 18.3110119047619  5.74962797619048 18.3947172619048  5.8203125 18.4654017857143  C 5.89099702380952 18.5360863095238  5.97470238095238 18.5714285714286  6.07142857142857 18.5714285714286  L 18.2142857142857 18.5714285714286  C 18.3110119047619 18.5714285714286  18.3947172619048 18.5360863095238  18.4654017857143 18.4654017857143  Z M 19.4754464285714 4.81026785714286  C 19.8251488095238 5.15997023809524  20 5.58035714285714  20 6.07142857142857  L 20 18.2142857142857  C 20 18.7053571428571  19.8251488095238 19.125744047619  19.4754464285714 19.4754464285714  C 19.1257440476191 19.8251488095238  18.7053571428571 20  18.2142857142857 20  L 6.07142857142857 20  C 5.58035714285714 20  5.15997023809524 19.8251488095238  4.81026785714286 19.4754464285714  C 4.46056547619048 19.125744047619  4.28571428571429 18.7053571428571  4.28571428571429 18.2142857142857  L 4.28571428571429 6.07142857142857  C 4.28571428571429 5.58035714285714  4.46056547619048 5.15997023809524  4.81026785714286 4.81026785714286  C 5.15997023809524 4.46056547619047  5.58035714285714 4.28571428571429  6.07142857142857 4.28571428571429  L 18.2142857142857 4.28571428571429  C 18.7053571428571 4.28571428571429  19.1257440476191 4.46056547619047  19.4754464285714 4.81026785714286  Z M 15.1897321428571 0.524553571428572  C 15.5394345238095 0.874255952380951  15.7142857142857 1.29464285714286  15.7142857142857 1.78571428571429  L 15.7142857142857 3.57142857142857  L 14.2857142857143 3.57142857142857  L 14.2857142857143 1.78571428571429  C 14.2857142857143 1.6889880952381  14.2503720238095 1.60528273809524  14.1796875 1.53459821428571  C 14.1090029761905 1.46391369047619  14.0252976190476 1.42857142857143  13.9285714285714 1.42857142857143  L 1.78571428571429 1.42857142857143  C 1.6889880952381 1.42857142857143  1.60528273809524 1.46391369047619  1.53459821428571 1.53459821428571  C 1.46391369047619 1.60528273809524  1.42857142857143 1.6889880952381  1.42857142857143 1.78571428571429  L 1.42857142857143 13.9285714285714  C 1.42857142857143 14.0252976190476  1.46391369047619 14.1090029761905  1.53459821428571 14.1796875  C 1.60528273809524 14.2503720238095  1.6889880952381 14.2857142857143  1.78571428571429 14.2857142857143  L 3.57142857142857 14.2857142857143  L 3.57142857142857 15.7142857142857  L 1.78571428571429 15.7142857142857  C 1.29464285714286 15.7142857142857  0.874255952380952 15.5394345238095  0.524553571428571 15.1897321428571  C 0.17485119047619 14.8400297619048  0 14.4196428571429  0 13.9285714285714  L 0 1.78571428571429  C 0 1.29464285714286  0.17485119047619 0.874255952380951  0.524553571428571 0.524553571428572  C 0.874255952380952 0.174851190476191  1.29464285714286 0  1.78571428571429 0  L 13.9285714285714 0  C 14.4196428571429 0  14.8400297619048 0.174851190476191  15.1897321428571 0.524553571428572  Z " fill-rule="nonzero" fill="#ffffff" stroke="none" transform="matrix(1 0 0 1 590 50 )" />
  </g>
</svg>