<?xml version="1.0" encoding="utf-8"?>
<svg version="1.1" xmlns:xlink="http://www.w3.org/1999/xlink" width="23px" height="23px" xmlns="http://www.w3.org/2000/svg">
  <g transform="matrix(1 0 0 1 -120 -76 )">
    <path d="M 21.7685443390965 0.14102564102564  C 22.0678564788994 -0.038461538461541  22.3586168432794 -0.0299145299145336  22.6408254322365 0.166666666666667  C 22.9230340211935 0.371794871794871  23.0384829894032 0.645299145299143  22.9871723368656 0.987179487179488  L 19.7032905744562 20.6794871794872  C 19.6605316973415 20.9273504273504  19.5237032905745 21.1196581196581  19.2928053541551 21.2564102564103  C 19.1730804982339 21.3247863247863  19.0405279791783 21.3589743589744  18.8951477969883 21.3589743589744  C 18.8010782673359 21.3589743589744  18.6984569622606 21.3376068376068  18.5872838817624 21.2948717948718  L 11.8271054099275 18.5384615384615  L 8.00446179587284 22.7307692307692  C 7.8505298382599 22.9102564102564  7.64956311582078 23  7.40156162855549 23  C 7.28183677263432 23  7.1834913552705 22.982905982906  7.10652537646403 22.9487179487179  C 6.94404164342815 22.8888888888889  6.81576501208403 22.7884615384615  6.72169548243168 22.6474358974359  C 6.62762595277933 22.5064102564103  6.58059118795315 22.3504273504273  6.58059118795315 22.1794871794872  L 6.58059118795315 16.3846153846154  L 0.525934188510876 13.9102564102564  C 0.209518497862056 13.7905982905983  0.0384829894032348 13.5555555555556  0.0128276631344116 13.2051282051282  C -0.0128276631344116 12.8717948717949  0.124000743632645 12.6196581196581  0.423312883435583 12.4487179487179  L 21.7685443390965 0.14102564102564  Z M 11.9425543781372 16.8076923076923  L 18.2537646402677 19.3846153846154  L 21.0886781929727 2.42307692307692  L 2.69380925822644 13.025641025641  L 7.00390407138873 14.7820512820513  L 18.0741773563859 6.58974358974359  L 11.9425543781372 16.8076923076923  Z " fill-rule="nonzero" fill="#000000" stroke="none" transform="matrix(1 0 0 1 120 76 )" />
  </g>
</svg>