<?xml version="1.0" encoding="utf-8"?>
<svg version="1.1" xmlns:xlink="http://www.w3.org/1999/xlink" width="21px" height="25px" xmlns="http://www.w3.org/2000/svg">
  <g transform="matrix(1 0 0 1 -500 -20 )">
    <path d="M 19 22.6371447455387  L 19 2.11500330469266  L 2.1 2.11500330469266  L 2.1 22.6371447455387  L 9.03984375 15.9286186384666  L 10.5 14.5241242564441  L 11.96015625 15.9286186384666  L 19 22.6371447455387  Z M 1.903125 0  L 19.096875 0  C 19.3484375 0  19.5890625 0.0495703899537348  19.81875 0.148711169861204  C 20.1796875 0.291914518616432  20.466796875 0.517735183961224  20.680078125 0.826173165895572  C 20.893359375 1.13461114782992  21 1.47609605640009  21 1.85062789160608  L 21 23.1493721083939  C 21 23.5239039435999  20.893359375 23.8653888521701  20.680078125 24.1738268341044  C 20.466796875 24.4822648160388  20.1796875 24.7080854813836  19.81875 24.8512888301388  C 19.6109375 24.9394139678343  19.3703125 24.9834765366821  19.096875 24.9834765366821  C 18.571875 24.9834765366821  18.11796875 24.807226261291  17.73515625 24.4547257105089  L 10.5 17.4487772637145  L 3.26484375 24.4547257105089  C 2.87109375 24.818241903503  2.4171875 25  1.903125 25  C 1.6515625 25  1.4109375 24.9504296100463  1.18125 24.8512888301388  C 0.8203125 24.7080854813836  0.533203125 24.4822648160388  0.319921875 24.1738268341044  C 0.106640625 23.8653888521701  0 23.5239039435999  0 23.1493721083939  L 0 1.85062789160608  C 0 1.47609605640009  0.106640625 1.13461114782992  0.319921875 0.826173165895572  C 0.533203125 0.517735183961224  0.8203125 0.291914518616432  1.18125 0.148711169861204  C 1.4109375 0.0495703899537348  1.6515625 0  1.903125 0  Z " fill-rule="nonzero" fill="#000000" stroke="none" transform="matrix(1 0 0 1 500 20 )" />
  </g>
</svg>