<?xml version="1.0" encoding="utf-8"?>
<svg version="1.1" xmlns:xlink="http://www.w3.org/1999/xlink" width="23px" height="25px" xmlns="http://www.w3.org/2000/svg">
  <g transform="matrix(1 0 0 1 -397 -20 )">
    <path d="M 3.548828125 20.8683894230769  C 3.73849826388889 20.6780849358974  3.83333333333333 20.4527243589744  3.83333333333333 20.1923076923077  C 3.83333333333333 19.931891025641  3.73849826388889 19.706530448718  3.548828125 19.5162259615385  C 3.35915798611111 19.325921474359  3.13454861111111 19.2307692307692  2.875 19.2307692307692  C 2.61545138888889 19.2307692307692  2.39084201388889 19.325921474359  2.201171875 19.5162259615385  C 2.01150173611111 19.706530448718  1.91666666666667 19.931891025641  1.91666666666667 20.1923076923077  C 1.91666666666667 20.4527243589744  2.01150173611111 20.6780849358974  2.201171875 20.8683894230769  C 2.39084201388889 21.0586939102564  2.61545138888889 21.1538461538462  2.875 21.1538461538462  C 3.13454861111111 21.1538461538462  3.35915798611111 21.0586939102564  3.548828125 20.8683894230769  Z M 20.7613932291667 12.7554086538462  C 20.9760199652778 12.294671474359  21.0833333333333 11.8890224358974  21.0833333333333 11.5384615384615  C 21.0833333333333 11.0276442307692  20.888671875 10.5794270833333  20.4993489583333 10.1938100961538  C 20.1100260416667 9.80819310897436  19.6657986111111 9.61538461538462  19.1666666666667 9.61538461538462  L 13.8958333333333 9.61538461538462  C 13.8958333333333 9.03445512820513  14.1354166666667 8.23567708333333  14.6145833333333 7.21905048076923  C 15.09375 6.20242387820513  15.3333333333333 5.39863782051282  15.3333333333333 4.80769230769231  C 15.3333333333333 3.82612179487179  15.1736111111111 3.09995993589743  14.8541666666667 2.62920673076923  C 14.5347222222222 2.15845352564102  13.8958333333333 1.92307692307692  12.9375 1.92307692307692  C 12.6779513888889 2.18349358974359  12.48828125 2.60917467948718  12.3684895833333 3.20012019230769  C 12.2486979166667 3.7910657051282  12.0964626736111 4.41957131410256  11.9117838541667 5.08563701923077  C 11.7271050347222 5.75170272435897  11.4301215277778 6.30008012820513  11.0208333333333 6.73076923076923  C 10.8012152777778 6.96113782051282  10.4168836805556 7.41686698717949  9.86783854166667 8.09795673076923  C 9.82790798611111 8.14803685897436  9.71310763888889 8.29827724358974  9.5234375 8.54867788461539  C 9.33376736111111 8.79907852564102  9.17654079861111 9.00440705128205  9.0517578125 9.16466346153846  C 8.92697482638889 9.32491987179487  8.75477430555556 9.53776041666667  8.53515625 9.80318509615385  C 8.31553819444444 10.068609775641  8.11588541666667 10.2889623397436  7.93619791666667 10.4642427884615  C 7.75651041666667 10.6395232371795  7.56434461805556 10.8173076923077  7.35970052083333 10.9975961538462  C 7.15505642361111 11.1778846153846  6.95540364583333 11.3131009615385  6.7607421875 11.4032451923077  C 6.56608072916667 11.4933894230769  6.38888888888889 11.5384615384615  6.22916666666667 11.5384615384615  L 5.75 11.5384615384615  L 5.75 21.1538461538462  L 6.22916666666667 21.1538461538462  C 6.35894097222222 21.1538461538462  6.51616753472222 21.1688701923077  6.70084635416667 21.1989182692308  C 6.88552517361111 21.2289663461538  7.05023871527778 21.2615184294872  7.19498697916667 21.2965745192308  C 7.33973524305556 21.3316306089744  7.52940538194444 21.38671875  7.76399739583333 21.4618389423077  C 7.99858940972222 21.5369591346154  8.17328559027778 21.5945512820513  8.2880859375 21.6346153846154  C 8.40288628472222 21.6746794871795  8.580078125 21.7372796474359  8.81966145833333 21.8224158653846  C 9.05924479166667 21.9075520833333  9.20399305555556 21.9601362179487  9.25390625 21.9801682692308  C 11.3602430555556 22.7113381410256  13.0672743055556 23.0769230769231  14.375 23.0769230769231  L 16.1868489583333 23.0769230769231  C 18.103515625 23.0769230769231  19.0618489583333 22.2405849358974  19.0618489583333 20.5679086538462  C 19.0618489583333 20.3074919871795  19.0368923611111 20.0270432692308  18.9869791666667 19.7265625  C 19.2864583333333 19.5663060897436  19.5235460069444 19.3033854166667  19.6982421875 18.9378004807692  C 19.8729383680556 18.5722155448718  19.9602864583333 18.2041266025641  19.9602864583333 17.8335336538462  C 19.9602864583333 17.4629407051282  19.8704427083333 17.1173878205128  19.6907552083333 16.796875  C 20.2198350694444 16.2960737179487  20.484375 15.7001201923077  20.484375 15.0090144230769  C 20.484375 14.7586137820513  20.4344618055556 14.4806690705128  20.3346354166667 14.1751802884615  C 20.2348090277778 13.8696915064103  20.1100260416667 13.6318108974359  19.9602864583333 13.4615384615385  C 20.2797309027778 13.4515224358974  20.5467664930556 13.2161458333333  20.7613932291667 12.7554086538462  Z M 21.8619791666667 8.83413461538462  C 22.6206597222222 9.59535256410256  23 10.4917868589744  23 11.5234375  C 23 12.4148637820513  22.7554253472222 13.2311698717949  22.2662760416667 13.9723557692308  C 22.3561197916667 14.3028846153846  22.4010416666667 14.6484375  22.4010416666667 15.0090144230769  C 22.4010416666667 15.7802483974359  22.2113715277778 16.5014022435897  21.83203125 17.1724759615385  C 21.8619791666667 17.3828125  21.876953125 17.598157051282  21.876953125 17.8185096153846  C 21.876953125 18.8301282051282  21.5774739583333 19.7215544871795  20.978515625 20.4927884615385  C 20.9884982638889 21.885016025641  20.5642361111111 22.9842748397436  19.7057291666667 23.7905649038462  C 18.8472222222222 24.5968549679487  17.7141927083333 25  16.306640625 25  L 15.767578125 25  L 14.375 25  C 13.4166666666667 25  12.4708116319444 24.8873197115385  11.5374348958333 24.6619591346154  C 10.6040581597222 24.4365985576923  9.5234375 24.1085737179487  8.29557291666667 23.6778846153846  C 7.13758680555556 23.2772435897436  6.44878472222222 23.0769230769231  6.22916666666667 23.0769230769231  L 1.91666666666667 23.0769230769231  C 1.38758680555556 23.0769230769231  0.935872395833333 22.8891225961538  0.5615234375 22.5135216346154  C 0.187174479166667 22.1379206730769  0 21.6846955128205  0 21.1538461538462  L 0 11.5384615384615  C 0 11.0076121794872  0.187174479166667 10.5543870192308  0.5615234375 10.1787860576923  C 0.935872395833333 9.80318509615385  1.38758680555556 9.61538461538462  1.91666666666667 9.61538461538462  L 6.01953125 9.61538461538462  C 6.37890625 9.375  7.06271701388889 8.59875801282051  8.07096354166667 7.28665865384615  C 8.64995659722222 6.53545673076923  9.18402777777778 5.89443108974359  9.67317708333333 5.36358173076923  C 9.91276041666667 5.11318108974359  10.0899522569444 4.68499599358974  10.2047526041667 4.07902644230769  C 10.3195529513889 3.47305689102564  10.4717881944444 2.83954326923077  10.6614583333333 2.17848557692308  C 10.8511284722222 1.51742788461539  11.1605902777778 0.9765625  11.58984375 0.555889423076922  C 11.9791666666667 0.185296474358976  12.4283854166667 0  12.9375 0  C 13.7760416666667 0  14.5297309027778 0.162760416666669  15.1985677083333 0.48828125  C 15.8674045138889 0.813802083333331  16.3765190972222 1.32211538461539  16.7259114583333 2.01322115384615  C 17.0753038194444 2.70432692307692  17.25 3.63581730769231  17.25 4.80769230769231  C 17.25 5.73918269230769  17.0104166666667 6.70072115384615  16.53125 7.69230769230769  L 19.1666666666667 7.69230769230769  C 20.2048611111111 7.69230769230769  21.1032986111111 8.07291666666667  21.8619791666667 8.83413461538462  Z " fill-rule="nonzero" fill="#000000" stroke="none" transform="matrix(1 0 0 1 397 20 )" />
  </g>
</svg>