<?xml version="1.0" encoding="utf-8"?>
<svg version="1.1" xmlns:xlink="http://www.w3.org/1999/xlink" width="20px" height="20px" xmlns="http://www.w3.org/2000/svg">
  <g transform="matrix(1 0 0 1 -1235 30 )">
    <path d="M 19.9787083037615 0.759943181818181  C 20.0118287201325 0.954071969696968  19.981074047788 1.14109848484848  19.8864442867282 1.32102272727273  L 10.8019872249823 19.5028409090909  C 10.6411166311805 19.8342803030303  10.3714218121599 20  9.99290276792051 20  C 9.94558788739059 20  9.8746155665957 19.9905303030303  9.77998580553584 19.9715909090909  C 9.57180033120416 19.9242424242424  9.40383250532292 19.8177083333333  9.27608232789212 19.6519886363636  C 9.14833215046132 19.4862689393939  9.08445706174592 19.2992424242424  9.08445706174592 19.0909090909091  L 9.08445706174592 10.9090909090909  L 0.908445706174592 10.9090909090909  C 0.700260231842915 10.9090909090909  0.513366453749704 10.8451704545455  0.347764371894961 10.7173295454545  C 0.182162290040218 10.5894886363636  0.0757038088478827 10.4214015151515  0.028388928317956 10.2130681818182  C -0.0189259522119707 10.0047348484848  0 9.80587121212121  0.085166784953868 9.61647727272727  C 0.170333569907736 9.42708333333333  0.307546723444523 9.28503787878788  0.49680624556423 9.19034090909091  L 18.6657203690561 0.0994318181818188  C 18.7887390584339 0.0331439393939381  18.9259522119707 0  19.0773598296664 0  C 19.332860184528 0  19.5457771469127 0.0899621212121193  19.7161107168204 0.269886363636365  C 19.8580553584102 0.402462121212119  19.9455878873906 0.565814393939392  19.9787083037615 0.759943181818181  Z " fill-rule="nonzero" fill="#ffffff" stroke="none" transform="matrix(1 0 0 1 1235 -30 )" />
  </g>
</svg>