<?xml version="1.0" encoding="utf-8"?>
<svg version="1.1" xmlns:xlink="http://www.w3.org/1999/xlink" width="18px" height="20px" xmlns="http://www.w3.org/2000/svg">
  <g transform="matrix(1 0 0 1 -1240 -39 )">
    <path d="M 10.5772058823529 1.796875  C 10.3345588235294 1.55133928571429  10.0441176470588 1.42857142857143  9.70588235294118 1.42857142857143  C 9.36764705882353 1.42857142857143  9.07720588235294 1.55133928571429  8.83455882352941 1.796875  C 8.59191176470588 2.04241071428571  8.47058823529412 2.33630952380952  8.47058823529412 2.67857142857143  L 8.47058823529412 10  L 8.11764705882353 10  L 8.11764705882353 4.10714285714286  C 8.11764705882353 3.76488095238095  7.99632352941176 3.47098214285714  7.75367647058824 3.22544642857143  C 7.51102941176471 2.97991071428571  7.22058823529412 2.85714285714286  6.88235294117647 2.85714285714286  C 6.54411764705882 2.85714285714286  6.25367647058824 2.97991071428571  6.01102941176471 3.22544642857143  C 5.76838235294118 3.47098214285714  5.64705882352941 3.76488095238095  5.64705882352941 4.10714285714286  L 5.64705882352941 10  L 5.64705882352941 12.8571428571429  L 3.94852941176471 10.5691964285714  C 3.66911764705882 10.1897321428571  3.29411764705882 10  2.82352941176471 10  C 2.43382352941176 10  2.10110294117647 10.1395089285714  1.82536764705882 10.4185267857143  C 1.54963235294118 10.6975446428571  1.41176470588235 11.0342261904762  1.41176470588235 11.4285714285714  C 1.41176470588235 11.7485119047619  1.50735294117647 12.0349702380952  1.69852941176471 12.2879464285714  L 5.93382352941176 18.0022321428571  C 6.21323529411765 18.3816964285714  6.58823529411765 18.5714285714286  7.05882352941176 18.5714285714286  L 14.6470588235294 18.5714285714286  C 14.8970588235294 18.5714285714286  15.1213235294118 18.4895833333333  15.3198529411765 18.3258928571429  C 15.5183823529412 18.1622023809524  15.6433823529412 17.953869047619  15.6948529411765 17.7008928571429  L 16.5330882352941 13.1808035714286  C 16.5698529411765 12.9427083333333  16.5882352941176 12.7232142857143  16.5882352941176 12.5223214285714  L 16.5882352941176 6.96428571428571  C 16.5882352941176 6.62202380952381  16.4669117647059 6.328125  16.2242647058824 6.08258928571429  C 15.9816176470588 5.83705357142857  15.6911764705882 5.71428571428571  15.3529411764706 5.71428571428571  C 15.0147058823529 5.71428571428571  14.7242647058824 5.83705357142857  14.4816176470588 6.08258928571429  C 14.2389705882353 6.328125  14.1176470588235 6.62202380952381  14.1176470588235 6.96428571428571  L 14.1176470588235 10  L 13.7647058823529 10  L 13.7647058823529 4.10714285714286  C 13.7647058823529 3.76488095238095  13.6433823529412 3.47098214285714  13.4007352941176 3.22544642857143  C 13.1580882352941 2.97991071428571  12.8676470588235 2.85714285714286  12.5294117647059 2.85714285714286  C 12.1911764705882 2.85714285714286  11.9007352941176 2.97991071428571  11.6580882352941 3.22544642857143  C 11.4154411764706 3.47098214285714  11.2941176470588 3.76488095238095  11.2941176470588 4.10714285714286  L 11.2941176470588 10  L 10.9411764705882 10  L 10.9411764705882 2.67857142857143  C 10.9411764705882 2.33630952380952  10.8198529411765 2.04241071428571  10.5772058823529 1.796875  Z M 8.32169117647059 0.396205357142858  C 8.74448529411765 0.132068452380953  9.20588235294118 0  9.70588235294118 0  C 10.2058823529412 0  10.6672794117647 0.132068452380953  11.0900735294118 0.396205357142858  C 11.5128676470588 0.660342261904761  11.8382352941176 1.01934523809524  12.0661764705882 1.47321428571429  C 12.2058823529412 1.44345238095238  12.3602941176471 1.42857142857143  12.5294117647059 1.42857142857143  C 13.2573529411765 1.42857142857143  13.8805147058824 1.69084821428571  14.3988970588235 2.21540178571429  C 14.9172794117647 2.73995535714286  15.1764705882353 3.37053571428571  15.1764705882353 4.10714285714286  L 15.1764705882353 4.296875  C 15.9485294117647 4.25223214285714  16.6121323529412 4.49032738095238  17.1672794117647 5.01116071428571  C 17.7224264705882 5.53199404761905  18 6.18303571428571  18 6.96428571428571  L 18 12.5223214285714  C 18 12.8199404761905  17.9705882352941 13.1287202380952  17.9117647058824 13.4486607142857  L 17.0735294117647 17.9575892857143  C 16.9705882352941 18.5453869047619  16.6893382352941 19.0327380952381  16.2297794117647 19.4196428571429  C 15.7702205882353 19.8065476190476  15.2426470588235 20  14.6470588235294 20  L 7.05882352941176 20  C 6.61764705882353 20  6.19669117647059 19.897693452381  5.79595588235294 19.6930803571429  C 5.3952205882353 19.4884672619048  5.0625 19.2113095238095  4.79779411764706 18.8616071428571  L 0.5625 13.1473214285714  C 0.1875 12.641369047619  0 12.0684523809524  0 11.4285714285714  C 0 10.639880952381  0.275735294117647 9.96651785714286  0.827205882352941 9.40848214285714  C 1.37867647058824 8.85044642857143  2.04411764705882 8.57142857142857  2.82352941176471 8.57142857142857  C 3.39705882352941 8.57142857142857  3.86764705882353 8.69791666666667  4.23529411764706 8.95089285714286  L 4.23529411764706 4.10714285714286  C 4.23529411764706 3.37053571428571  4.49448529411765 2.73995535714286  5.01286764705882 2.21540178571429  C 5.53125 1.69084821428571  6.15441176470588 1.42857142857143  6.88235294117647 1.42857142857143  C 7.05147058823529 1.42857142857143  7.20588235294118 1.44345238095238  7.34558823529412 1.47321428571429  C 7.57352941176471 1.01934523809524  7.89889705882353 0.660342261904761  8.32169117647059 0.396205357142858  Z " fill-rule="nonzero" fill="#fffbfb" stroke="none" transform="matrix(1 0 0 1 1240 39 )" />
  </g>
</svg>