<?xml version="1.0" encoding="utf-8"?>
<svg version="1.1" xmlns:xlink="http://www.w3.org/1999/xlink" width="23px" height="17px" xmlns="http://www.w3.org/2000/svg">
  <g transform="matrix(1 0 0 1 -25 -78 )">
    <path d="M 7.31475409836066 13.6470160116448  C 7.31475409836066 13.7542455118874  7.27285974499089 13.8491023774867  7.18907103825137 13.9315866084425  L 6.56065573770492 14.5502183406114  C 6.47686703096539 14.6327025715672  6.38051001821494 14.6739446870451  6.27158469945355 14.6739446870451  C 6.16265938069217 14.6739446870451  6.06630236794171 14.6327025715672  5.98251366120219 14.5502183406114  L 0.12568306010929 8.78457059679767  C 0.0418943533697632 8.70208636584182  0 8.6072295002426  0 8.5  C 0 8.3927704997574  0.0418943533697632 8.29791363415817  0.12568306010929 8.21542940320233  L 5.98251366120219 2.44978165938865  C 6.06630236794171 2.3672974284328  6.16265938069217 2.32605531295488  6.27158469945355 2.32605531295488  C 6.38051001821494 2.32605531295488  6.47686703096539 2.3672974284328  6.56065573770492 2.44978165938865  L 7.18907103825137 3.0684133915575  C 7.27285974499089 3.15089762251334  7.31475409836066 3.24575448811256  7.31475409836066 3.35298398835517  C 7.31475409836066 3.46021348859777  7.27285974499089 3.55507035419699  7.18907103825137 3.63755458515284  L 2.24972677595628 8.5  L 7.18907103825137 13.3624454148472  C 7.27285974499089 13.444929645803  7.31475409836066 13.5397865114022  7.31475409836066 13.6470160116448  Z M 14.5855191256831 0.426855895196506  C 14.6399817850638 0.521712760795728  14.6504553734062 0.622755943716641  14.6169398907104 0.729985443959243  L 9.92896174863388 16.703056768559  C 9.89544626593807 16.8102862688016  9.83051001821494 16.8907083939835  9.73415300546448 16.9443231441048  C 9.63779599271403 16.9979378942261  9.53934426229508 17.0082484230956  9.43879781420765 16.9752547307132  L 8.65956284153006 16.7649199417758  C 8.55063752276867 16.7319262493935  8.46894353369763 16.6680009704027  8.41448087431694 16.5731441048035  C 8.36001821493625 16.4782872392043  8.34954462659381 16.3772440562834  8.38306010928962 16.2700145560408  L 13.0710382513661 0.296943231441049  C 13.1045537340619 0.189713731198446  13.1694899817851 0.109291606016496  13.2658469945355 0.0556768558951971  C 13.362204007286 0.00206210577389465  13.4606557377049 -0.00824842309558615  13.5612021857924 0.0247452692867547  L 14.3404371584699 0.235080058224164  C 14.4493624772313 0.268073750606499  14.5310564663024 0.331999029597282  14.5855191256831 0.426855895196506  Z M 23 8.5  C 23 8.6072295002426  22.9581056466302 8.70208636584182  22.8743169398907 8.78457059679767  L 17.0174863387978 14.5502183406114  C 16.9336976320583 14.6327025715672  16.8373406193078 14.6739446870451  16.7284153005464 14.6739446870451  C 16.6194899817851 14.6739446870451  16.5231329690346 14.6327025715672  16.4393442622951 14.5502183406114  L 15.8109289617486 13.9315866084425  C 15.7271402550091 13.8491023774867  15.6852459016393 13.7542455118874  15.6852459016393 13.6470160116448  C 15.6852459016393 13.5397865114022  15.7271402550091 13.444929645803  15.8109289617486 13.3624454148472  L 20.7502732240437 8.5  L 15.8109289617486 3.63755458515284  C 15.7271402550091 3.55507035419699  15.6852459016393 3.46021348859777  15.6852459016393 3.35298398835517  C 15.6852459016393 3.24575448811256  15.7271402550091 3.15089762251334  15.8109289617486 3.0684133915575  L 16.4393442622951 2.44978165938865  C 16.5231329690346 2.3672974284328  16.6194899817851 2.32605531295488  16.7284153005464 2.32605531295488  C 16.8373406193078 2.32605531295488  16.9336976320583 2.3672974284328  17.0174863387978 2.44978165938865  L 22.8743169398907 8.21542940320233  C 22.9581056466302 8.29791363415817  23 8.3927704997574  23 8.5  Z " fill-rule="nonzero" fill="#000000" stroke="none" transform="matrix(1 0 0 1 25 78 )" />
  </g>
</svg>