<?xml version="1.0" encoding="utf-8"?>
<svg version="1.1" xmlns:xlink="http://www.w3.org/1999/xlink" width="23px" height="20px" xmlns="http://www.w3.org/2000/svg">
  <g transform="matrix(1 0 0 1 -118 -79 )">
    <path d="M 16.396484375 2.57161458333333  C 14.877697172619 1.96831597222222  13.2455357142857 1.66666666666667  11.5 1.66666666666667  C 9.75446428571428 1.66666666666667  8.12230282738095 1.96831597222222  6.603515625 2.57161458333333  C 5.08472842261905 3.17491319444444  3.87825520833333 3.98871527777778  2.98409598214286 5.01302083333333  C 2.08993675595238 6.03732638888889  1.64285714285714 7.14409722222222  1.64285714285714 8.33333333333333  C 1.64285714285714 9.30555555555556  1.9487537202381 10.2322048611111  2.560546875 11.11328125  C 3.1723400297619 11.9943576388889  4.03441220238095 12.7560763888889  5.14676339285714 13.3984375  L 6.26339285714286 14.0494791666667  L 5.91685267857143 15.2994791666667  C 5.71149553571429 16.0894097222222  5.41201636904762 16.8359375  5.01841517857143 17.5390625  C 6.31901041666667 16.9921875  7.49553571428571 16.25  8.54799107142857 15.3125  L 9.09988839285714 14.8177083333333  L 9.83147321428572 14.8958333333333  C 10.421875 14.9652777777778  10.9780505952381 15  11.5 15  C 13.2455357142857 15  14.877697172619 14.6983506944444  16.396484375 14.0950520833333  C 17.915271577381 13.4917534722222  19.1217447916667 12.6779513888889  20.0159040178571 11.6536458333333  C 20.9100632440476 10.6293402777778  21.3571428571429 9.52256944444444  21.3571428571429 8.33333333333333  C 21.3571428571429 7.14409722222222  20.9100632440476 6.03732638888889  20.0159040178571 5.01302083333333  C 19.1217447916667 3.98871527777778  17.915271577381 3.17491319444444  16.396484375 2.57161458333333  Z M 21.4598214285714 4.14713541666667  C 22.4866071428571 5.42751736111111  23 6.82291666666667  23 8.33333333333333  C 23 9.84375  22.4866071428571 11.2391493055556  21.4598214285714 12.51953125  C 20.4330357142857 13.7999131944444  19.038318452381 14.8111979166667  17.2756696428571 15.5533854166667  C 15.5130208333333 16.2955729166667  13.5877976190476 16.6666666666667  11.5 16.6666666666667  C 10.9010416666667 16.6666666666667  10.2806919642857 16.6319444444444  9.63895089285714 16.5625  C 7.94475446428571 18.0815972222222  5.97674851190476 19.1319444444444  3.73493303571429 19.7135416666667  C 3.31566220238095 19.8350694444444  2.82793898809524 19.9305555555556  2.27176339285714 20  L 2.20758928571429 20  C 2.07924107142857 20  1.96372767857143 19.9544270833333  1.86104910714286 19.86328125  C 1.75837053571429 19.7721354166667  1.68991815476191 19.6527777777778  1.65569196428571 19.5052083333333  L 1.65569196428571 19.4921875  C 1.63002232142857 19.4574652777778  1.62788318452381 19.4053819444444  1.64927455357143 19.3359375  C 1.67066592261905 19.2664930555556  1.6792224702381 19.2230902777778  1.67494419642857 19.2057291666667  C 1.67066592261905 19.1883680555556  1.68991815476191 19.1471354166667  1.73270089285714 19.08203125  L 1.80970982142857 18.96484375  C 1.80970982142857 18.96484375  1.83965773809524 18.9279513888889  1.89955357142857 18.8541666666667  C 1.95944940476191 18.7803819444444  1.9936755952381 18.7413194444444  2.00223214285714 18.7369791666667  C 2.06212797619048 18.6675347222222  2.19475446428571 18.5177951388889  2.40011160714286 18.2877604166667  C 2.60546875 18.0577256944444  2.75306919642857 17.8927951388889  2.84291294642857 17.79296875  C 2.93275669642857 17.6931423611111  3.06538318452381 17.5217013888889  3.24079241071429 17.2786458333333  C 3.41620163690476 17.0355902777778  3.55524553571429 16.8142361111111  3.65792410714286 16.6145833333333  C 3.76060267857143 16.4149305555556  3.87611607142857 16.1588541666667  4.00446428571429 15.8463541666667  C 4.1328125 15.5338541666667  4.24404761904762 15.2039930555556  4.33816964285714 14.8567708333333  C 2.99479166666667 14.0842013888889  1.93591889880952 13.1293402777778  1.16155133928571 11.9921875  C 0.387183779761905 10.8550347222222  0 9.63541666666667  0 8.33333333333333  C 0 6.82291666666667  0.513392857142857 5.42751736111111  1.54017857142857 4.14713541666667  C 2.56696428571429 2.86675347222222  3.96168154761905 1.85546875  5.72433035714286 1.11328125  C 7.48697916666667 0.37109375  9.41220238095238 0  11.5 0  C 13.5877976190476 0  15.5130208333333 0.37109375  17.2756696428571 1.11328125  C 19.038318452381 1.85546875  20.4330357142857 2.86675347222222  21.4598214285714 4.14713541666667  Z " fill-rule="nonzero" fill="#000000" stroke="none" transform="matrix(1 0 0 1 118 79 )" />
  </g>
</svg>