<?xml version="1.0" encoding="utf-8"?>
<svg version="1.1" xmlns:xlink="http://www.w3.org/1999/xlink" width="24px" height="20px" xmlns="http://www.w3.org/2000/svg">
  <g transform="matrix(1 0 0 1 -206 -79 )">
    <path d="M 20.0312687913409 10.9801136363636  C 20.2236921226699 11.0558712121212  20.3199037883343 11.1931818181818  20.3199037883343 11.3920454545455  L 20.3199037883343 15.9090909090909  C 20.3199037883343 17.0359848484848  19.913409500902 17.9995265151515  19.1004209260373 18.7997159090909  C 18.2874323511726 19.5999053030303  17.3084786530367 20  16.1635598316296 20  L 4.15634395670475 20  C 3.01142513529766 20  2.03247143716176 19.5999053030303  1.21948286229705 18.7997159090909  C 0.406494287432351 17.9995265151515  0 17.0359848484848  0 15.9090909090909  L 0 4.09090909090909  C 0 2.96401515151515  0.406494287432351 2.00047348484848  1.21948286229705 1.20028409090909  C 2.03247143716176 0.400094696969695  3.01142513529766 0  4.15634395670475 0  L 16.1635598316296 0  C 16.7696933253157 0  17.3325315694528 0.118371212121211  17.8520745640409 0.355113636363635  C 17.9963920625376 0.421401515151514  18.0829825616356 0.53030303030303  18.1118460613349 0.681818181818181  C 18.1407095610343 0.84280303030303  18.0974143114853 0.980113636363635  17.9819603126879 1.09375  L 17.2748045700541 1.78977272727273  C 17.1785929043897 1.8844696969697  17.0679494888755 1.93181818181818  16.9428743235117 1.93181818181818  C 16.9140108238124 1.93181818181818  16.8707155742634 1.92234848484848  16.8129885748647 1.90340909090909  C 16.5917017438364 1.84659090909091  16.3752254960914 1.81818181818182  16.1635598316296 2  L 4.15634395670475 2  C 3.5213469633193 1.81818181818182  2.97775105231509 2.0407196969697  2.52555622369212 2.48579545454545  C 2.07336139506915 2.93087121212121  1.84726398075767 3.46590909090909  2 4.09090909090909  L 2 15.9090909090909  C 1.84726398075767 16.5340909090909  2.07336139506915 17.0691287878788  2.52555622369212 17.5142045454545  C 2.97775105231509 17.9592803030303  3.5213469633193 18.1818181818182  4.15634395670475 18  L 16.1635598316296 18  C 16.798556825015 18.1818181818182  17.3421527360192 17.9592803030303  17.7943475646422 17.5142045454545  C 18.2465423932652 17.0691287878788  18.4726398075767 16.5340909090909  18.4726398075767 15.9090909090909  L 18.4726398075767 12.3011363636364  C 18.4726398075767 12.1780303030303  18.5159350571257 12.0738636363636  18.6025255562237 11.9886363636364  L 19.5261575466025 11.0795454545455  C 19.622369212267 10.9848484848485  19.7330126277811 10.9375  19.8580877931449 10.9375  C 19.9158147925436 10.9375  19.9735417919423 10.9517045454545  20.0312687913409 10.9801136363636  Z M 24 3.63636363636364  C 24 3.94886363636364  23.8845460012026 4.21875  23.6536380036079 4.44602272727273  L 11.9061936259771 16.0085227272727  C 11.6752856283824 16.2357954545455  11.4010823812387 16.3494318181818  11.083583884546 16.3494318181818  C 10.7660853878533 16.3494318181818  10.4918821407096 16.2357954545455  10.2609741431149 16.0085227272727  L 4.05532170775707 9.90056818181818  C 3.82441371016236 9.67329545454545  3.708959711365 9.40340909090909  3.708959711365 9.09090909090909  C 3.708959711365 8.77840909090909  3.82441371016236 8.50852272727272  4.05532170775707 8.28125  L 5.64281419122069 6.71875  C 5.87372218881539 6.49147727272727  6.14792543595911 6.37784090909091  6.46542393265183 6.37784090909091  C 6.78292242934456 6.37784090909091  7.05712567648827 6.49147727272727  7.28803367408298 6.71875  L 11.083583884546 10.4545454545455  L 20.420926037282 1.26420454545455  C 20.6518340348767 1.03693181818182  20.9260372820204 0.923295454545454  21.2435357787132 0.923295454545454  C 21.5610342754059 0.923295454545454  21.8352375225496 1.03693181818182  22.0661455201443 1.26420454545455  L 23.6536380036079 2.82670454545455  C 23.8845460012026 3.05397727272727  24 3.32386363636364  24 3.63636363636364  Z " fill-rule="nonzero" fill="#000000" stroke="none" transform="matrix(1 0 0 1 206 79 )" />
  </g>
</svg>