<?xml version="1.0" encoding="utf-8"?>
<svg version="1.1" xmlns:xlink="http://www.w3.org/1999/xlink" width="30px" height="25px" xmlns="http://www.w3.org/2000/svg">
  <g transform="matrix(1 0 0 1 -41 -152 )">
    <path d="M 28.8100961538462 5.71732954545454  C 29.6033653846154 6.49857954545454  30 7.43371212121212  30 8.52272727272727  L 30 21.0227272727273  C 30 22.1117424242424  29.6033653846154 23.046875  28.8100961538462 23.828125  C 28.0168269230769 24.609375  27.0673076923077 25  25.9615384615385 25  L 4.03846153846154 25  C 2.93269230769231 25  1.98317307692308 24.609375  1.18990384615385 23.828125  C 0.396634615384615 23.046875  0 22.1117424242424  0 21.0227272727273  L 0 3.97727272727273  C 0 2.88825757575757  0.396634615384615 1.953125  1.18990384615385 1.171875  C 1.98317307692308 0.390625  2.93269230769231 0  4.03846153846154 0  L 9.80769230769231 0  C 10.9134615384615 0  11.8629807692308 0.390625  12.65625 1.171875  C 13.4495192307692 1.953125  13.8461538461538 2.88825757575757  13.8461538461538 3.97727272727273  L 13.8461538461538 5  L 25.9615384615385 5  C 27.0673076923077 4.54545454545454  28.0168269230769 4.93607954545454  28.8100961538462 5.71732954545454  Z " fill-rule="nonzero" fill="#000000" stroke="none" transform="matrix(1 0 0 1 41 152 )" />
  </g>
</svg>