<?xml version="1.0" encoding="utf-8"?>
<svg version="1.1" xmlns:xlink="http://www.w3.org/1999/xlink" width="15px" height="17px" xmlns="http://www.w3.org/2000/svg">
  <g transform="matrix(1 0 0 1 -50 -262 )">
    <path d="M 5 3.64285714285714  L 6.25 3.64285714285714  L 6.25 2.42857142857143  L 5 2.42857142857143  L 5 3.64285714285714  Z M 6.25 4.85714285714286  L 7.5 4.85714285714286  L 7.5 3.64285714285714  L 6.25 3.64285714285714  L 6.25 4.85714285714286  Z M 5 6.07142857142857  L 6.25 6.07142857142857  L 6.25 4.85714285714286  L 5 4.85714285714286  L 5 6.07142857142857  Z M 6.25 7.28571428571429  L 7.5 7.28571428571429  L 7.5 6.07142857142857  L 6.25 6.07142857142857  L 6.25 7.28571428571429  Z M 11.2890625 0.645089285714286  L 14.3359375 3.60491071428571  C 14.5182291666667 3.78199404761905  14.6744791666667 4.02232142857143  14.8046875 4.32589285714286  C 14.9348958333333 4.62946428571429  15 4.90773809523809  15 5.16071428571429  L 15 16.0892857142857  C 15 16.3422619047619  14.9088541666667 16.5572916666667  14.7265625 16.734375  C 14.5442708333333 16.9114583333333  14.3229166666667 17  14.0625 17  L 0.9375 17  C 0.677083333333333 17  0.455729166666667 16.9114583333333  0.2734375 16.734375  C 0.0911458333333333 16.5572916666667  0 16.3422619047619  0 16.0892857142857  L 0 0.910714285714286  C 0 0.657738095238095  0.0911458333333333 0.442708333333333  0.2734375 0.265625  C 0.455729166666667 0.0885416666666673  0.677083333333333 0  0.9375 0  L 9.6875 0  C 9.94791666666667 0  10.234375 0.0632440476190483  10.546875 0.189732142857143  C 10.859375 0.316220238095238  11.1067708333333 0.468005952380952  11.2890625 0.645089285714286  Z M 10.400390625 1.49888392857143  C 10.322265625 1.42299107142857  10.1888020833333 1.35342261904762  10 1.29017857142857  L 10 4.85714285714286  L 13.671875 4.85714285714286  C 13.6067708333333 4.67373511904762  13.53515625 4.54408482142857  13.45703125 4.46819196428571  L 10.400390625 1.49888392857143  Z M 1.25 15.7857142857143  L 13.75 15.7857142857143  L 13.75 6.07142857142857  L 9.6875 6.07142857142857  C 9.42708333333333 6.07142857142857  9.20572916666667 5.9828869047619  9.0234375 5.80580357142857  C 8.84114583333333 5.62872023809524  8.75 5.41369047619047  8.75 5.16071428571429  L 8.75 1.21428571428571  L 7.5 1.21428571428571  L 7.5 2.42857142857143  L 6.25 2.42857142857143  L 6.25 1.21428571428571  L 1.25 1.21428571428571  L 1.25 15.7857142857143  Z M 7.40234375 8.62332589285714  C 7.51302083333333 8.7055431547619  7.587890625 8.81305803571429  7.626953125 8.94587053571429  L 8.671875 12.2566964285714  C 8.72395833333333 12.4274553571429  8.75 12.5918898809524  8.75 12.75  C 8.75 13.2749255952381  8.51399739583333 13.709728422619  8.0419921875 14.0544084821429  C 7.56998697916667 14.3990885416667  6.97265625 14.5714285714286  6.25 14.5714285714286  C 5.52734375 14.5714285714286  4.93001302083333 14.3990885416667  4.4580078125 14.0544084821429  C 3.98600260416667 13.709728422619  3.75 13.2749255952381  3.75 12.75  C 3.75 12.5918898809524  3.77604166666667 12.4274553571429  3.828125 12.2566964285714  C 3.96484375 11.8582589285714  4.35546875 10.6060267857143  5 8.5  L 5 7.28571428571429  L 6.25 7.28571428571429  L 6.25 8.5  L 7.021484375 8.5  C 7.16471354166667 8.5  7.29166666666667 8.54110863095238  7.40234375 8.62332589285714  Z M 5.3662109375 13.1768973214286  C 5.6103515625 13.2970610119048  5.90494791666667 13.3571428571429  6.25 13.3571428571429  C 6.59505208333333 13.3571428571429  6.8896484375 13.2970610119048  7.1337890625 13.1768973214286  C 7.3779296875 13.0567336309524  7.5 12.9144345238095  7.5 12.75  C 7.5 12.5855654761905  7.3779296875 12.4432663690476  7.1337890625 12.3231026785714  C 6.8896484375 12.2029389880952  6.59505208333333 12.1428571428571  6.25 12.1428571428571  C 5.90494791666667 12.1428571428571  5.6103515625 12.2029389880952  5.3662109375 12.3231026785714  C 5.1220703125 12.4432663690476  5 12.5855654761905  5 12.75  C 5 12.9144345238095  5.1220703125 13.0567336309524  5.3662109375 13.1768973214286  Z " fill-rule="nonzero" fill="#000000" stroke="none" transform="matrix(1 0 0 1 50 262 )" />
  </g>
</svg>