<?xml version="1.0" encoding="utf-8"?>
<svg version="1.1" xmlns:xlink="http://www.w3.org/1999/xlink" width="18px" height="17px" xmlns="http://www.w3.org/2000/svg">
  <g transform="matrix(1 0 0 1 -50 -321 )">
    <path d="M 13.078125 14.9218651543793  L 12.2992788461538 10.4120982986767  L 15.609375 7.23062381852552  L 11.0444711538462 6.56647763074984  L 9 2.47448015122873  L 6.95552884615385 6.56647763074984  L 2.390625 7.23062381852552  L 5.70072115384615 10.4120982986767  L 4.91105769230769 14.9218651543793  L 9 12.7901701323251  L 13.078125 14.9218651543793  Z M 17.3942307692308 6.09514807813485  C 17.7980769230769 6.15942028985507  18 6.32367149758454  18 6.58790170132325  C 18 6.74501155219492  17.90625 6.91640411678219  17.71875 7.10207939508507  L 13.7920673076923 10.8941398865785  L 14.7223557692308 16.2501575299307  C 14.7295673076923 16.3001470279353  14.7331730769231 16.3715605965133  14.7331730769231 16.4643982356648  C 14.7331730769231 16.8214660785549  14.5853365384615 17  14.2896634615385 17  C 14.1526442307692 17  14.0084134615385 16.9571518588532  13.8569711538462 16.8714555765595  L 9 14.3434152488973  L 4.14302884615385 16.8714555765595  C 3.984375 16.9571518588532  3.84014423076923 17  3.71033653846154 17  C 3.55889423076923 17  3.4453125 16.9482251627809  3.36959134615385 16.8446754883428  C 3.29387019230769 16.7411258139046  3.25600961538462 16.6143667296786  3.25600961538462 16.4643982356648  C 3.25600961538462 16.421550094518  3.26322115384615 16.3501365259399  3.27764423076923 16.2501575299307  L 4.20793269230769 10.8941398865785  L 0.270432692307692 7.10207939508507  C 0.0901442307692308 6.90926275992439  0 6.73787019533711  0 6.58790170132325  C 0 6.32367149758454  0.201923076923077 6.15942028985507  0.605769230769231 6.09514807813485  L 6.03605769230769 5.31316950220542  L 8.46995192307692 0.439193446754883  C 8.60697115384616 0.14639781558496  8.78365384615385 0  9 0  C 9.21634615384615 0  9.39302884615385 0.14639781558496  9.53004807692308 0.439193446754883  L 11.9639423076923 5.31316950220542  L 17.3942307692308 6.09514807813485  Z " fill-rule="nonzero" fill="#000000" stroke="none" transform="matrix(1 0 0 1 50 321 )" />
  </g>
</svg>