<?xml version="1.0" encoding="utf-8"?>
<svg version="1.1" xmlns:xlink="http://www.w3.org/1999/xlink" width="23px" height="25px" xmlns="http://www.w3.org/2000/svg">
  <g transform="matrix(1 0 0 1 -41 -543 )">
    <path d="M 8.21661931818182 20.6868489583333  C 8.31463068181818 20.5891927083333  8.36363636363636 20.4644097222222  8.36363636363636 20.3125  L 8.36363636363636 8.85416666666667  C 8.36363636363636 8.70225694444444  8.31463068181818 8.57747395833333  8.21661931818182 8.47981770833333  C 8.11860795454546 8.38216145833333  7.99337121212121 8.33333333333333  7.84090909090909 8.33333333333333  L 6.79545454545455 8.33333333333333  C 6.64299242424243 8.33333333333333  6.51775568181818 8.38216145833333  6.41974431818182 8.47981770833333  C 6.32173295454545 8.57747395833333  6.27272727272727 8.70225694444444  6.27272727272727 8.85416666666667  L 6.27272727272727 20.3125  C 6.27272727272727 20.4644097222222  6.32173295454545 20.5891927083333  6.41974431818182 20.6868489583333  C 6.51775568181818 20.7845052083333  6.64299242424243 20.8333333333333  6.79545454545455 20.8333333333333  L 7.84090909090909 20.8333333333333  C 7.99337121212121 20.8333333333333  8.11860795454546 20.7845052083333  8.21661931818182 20.6868489583333  Z M 12.3984375 20.6868489583333  C 12.4964488636364 20.5891927083333  12.5454545454545 20.4644097222222  12.5454545454545 20.3125  L 12.5454545454545 8.85416666666667  C 12.5454545454545 8.70225694444444  12.4964488636364 8.57747395833333  12.3984375 8.47981770833333  C 12.3004261363636 8.38216145833333  12.1751893939394 8.33333333333333  12.0227272727273 8.33333333333333  L 10.9772727272727 8.33333333333333  C 10.8248106060606 8.33333333333333  10.6995738636364 8.38216145833333  10.6015625 8.47981770833333  C 10.5035511363636 8.57747395833333  10.4545454545455 8.70225694444444  10.4545454545455 8.85416666666667  L 10.4545454545455 20.3125  C 10.4545454545455 20.4644097222222  10.5035511363636 20.5891927083333  10.6015625 20.6868489583333  C 10.6995738636364 20.7845052083333  10.8248106060606 20.8333333333333  10.9772727272727 20.8333333333333  L 12.0227272727273 20.8333333333333  C 12.1751893939394 20.8333333333333  12.3004261363636 20.7845052083333  12.3984375 20.6868489583333  Z M 16.5802556818182 20.6868489583333  C 16.6782670454545 20.5891927083333  16.7272727272727 20.4644097222222  16.7272727272727 20.3125  L 16.7272727272727 8.85416666666667  C 16.7272727272727 8.70225694444444  16.6782670454545 8.57747395833333  16.5802556818182 8.47981770833333  C 16.4822443181818 8.38216145833333  16.3570075757576 8.33333333333333  16.2045454545455 8.33333333333333  L 15.1590909090909 8.33333333333333  C 15.0066287878788 8.33333333333333  14.8813920454545 8.38216145833333  14.7833806818182 8.47981770833333  C 14.6853693181818 8.57747395833333  14.6363636363636 8.70225694444444  14.6363636363636 8.85416666666667  L 14.6363636363636 20.3125  C 14.6363636363636 20.4644097222222  14.6853693181818 20.5891927083333  14.7833806818182 20.6868489583333  C 14.8813920454545 20.7845052083333  15.0066287878788 20.8333333333333  15.1590909090909 20.8333333333333  L 16.2045454545455 20.8333333333333  C 16.3570075757576 20.8333333333333  16.4822443181818 20.7845052083333  16.5802556818182 20.6868489583333  Z M 8.64133522727273 2.26236979166667  L 7.84090909090909 4.16666666666667  L 15.1590909090909 4.16666666666667  L 14.375 2.26236979166667  C 14.2987689393939 2.16471354166667  14.2062026515152 2.10503472222222  14.0973011363636 2.08333333333333  L 8.91903409090909 2.08333333333333  C 8.81013257575758 2.10503472222222  8.71756628787879 2.16471354166667  8.64133522727273 2.26236979166667  Z M 22.8529829545455 4.31315104166667  C 22.9509943181818 4.41080729166667  23 4.53559027777778  23 4.6875  L 23 5.72916666666667  C 23 5.88107638888889  22.9509943181818 6.005859375  22.8529829545455 6.103515625  C 22.7549715909091 6.201171875  22.6297348484849 6.25  22.4772727272727 6.25  L 21 6.25  L 21 21.6796875  C 20.9090909090909 22.5802951388889  20.6531723484849 23.3588324652778  20.1413352272727 24.0152994791667  C 19.6294981060606 24.6717664930556  19.0142045454545 25  18.2954545454545 25  L 4.70454545454546 25  C 3.98579545454546 25  3.37050189393939 24.6826171875  2.85866477272727 24.0478515625  C 2.34682765151515 23.4130859375  2.09090909090909 22.6453993055556  2 21.7447916666667  L 2 6.25  L 0.522727272727273 6.25  C 0.370265151515151 6.25  0.245028409090909 6.201171875  0.147017045454545 6.103515625  C 0.0490056818181818 6.005859375  0 5.88107638888889  0 5.72916666666667  L 0 4.6875  C 0 4.53559027777778  0.0490056818181818 4.41080729166667  0.147017045454545 4.31315104166667  C 0.245028409090909 4.21549479166667  0.370265151515151 4.16666666666667  0.522727272727273 4.16666666666667  L 5.5703125 4.16666666666667  L 6.71377840909091 1.44856770833333  C 6.87713068181818 1.04709201388889  7.17116477272727 0.705295138888887  7.59588068181818 0.423177083333334  C 8.02059659090909 0.141059027777776  8.45075757575758 0  8.88636363636364 0  L 14.1136363636364 0  C 14.5492424242424 0  14.9794034090909 0.141059027777776  15.4041193181818 0.423177083333334  C 15.8288352272727 0.705295138888887  16.1228693181818 1.04709201388889  16.2862215909091 1.44856770833333  L 17.4296875 4.16666666666667  L 22.4772727272727 4.16666666666667  C 22.6297348484849 4.16666666666667  22.7549715909091 4.21549479166667  22.8529829545455 4.31315104166667  Z " fill-rule="nonzero" fill="#000000" stroke="none" transform="matrix(1 0 0 1 41 543 )" />
  </g>
</svg>