<?xml version="1.0" encoding="utf-8"?>
<svg version="1.1" xmlns:xlink="http://www.w3.org/1999/xlink" width="17px" height="15px" xmlns="http://www.w3.org/2000/svg">
  <g transform="matrix(1 0 0 1 -707 -341 )">
    <path d="M 13.2717633928571 8.837890625  C 13.3286830357143 8.896484375  13.3571428571429 8.97135416666666  13.3571428571429 9.0625  L 13.3571428571429 12.1875  C 13.3571428571429 12.9622395833333  13.0899367559524 13.6246744791667  12.5555245535714 14.1748046875  C 12.0211123511905 14.7249348958333  11.3776041666667 15  10.625 15  L 2.73214285714286 15  C 1.97953869047619 15  1.33603050595238 14.7249348958333  0.801618303571429 14.1748046875  C 0.267206101190476 13.6246744791667  0 12.9622395833333  0 12.1875  L 0 4.0625  C 0 3.28776041666667  0.267206101190476 2.62532552083333  0.801618303571429 2.0751953125  C 1.33603050595238 1.52506510416666  1.97953869047619 1.25  2.73214285714286 1.25  L 9.41071428571429 1.25  C 9.49925595238095 1.25  9.57198660714286 1.279296875  9.62890625 1.337890625  C 9.68582589285714 1.396484375  9.71428571428571 1.47135416666667  9.71428571428571 1.5625  L 9.71428571428571 2.1875  C 9.71428571428571 2.27864583333333  9.68582589285714 2.353515625  9.62890625 2.412109375  C 9.57198660714286 2.470703125  9.49925595238095 2.5  9.41071428571429 2.5  L 2.73214285714286 2.5  C 2.31473214285714 2.5  1.95740327380952 2.65299479166666  1.66015625 2.958984375  C 1.36290922619048 3.26497395833333  1.21428571428571 3.6328125  1.21428571428571 4.0625  L 1.21428571428571 12.1875  C 1.21428571428571 12.6171875  1.36290922619048 12.9850260416667  1.66015625 13.291015625  C 1.95740327380952 13.5970052083333  2.31473214285714 13.75  2.73214285714286 13.75  L 10.625 13.75  C 11.0424107142857 13.75  11.3997395833333 13.5970052083333  11.6969866071429 13.291015625  C 11.9942336309524 12.9850260416667  12.1428571428571 12.6171875  12.1428571428571 12.1875  L 12.1428571428571 9.0625  C 12.1428571428571 8.97135416666666  12.1713169642857 8.896484375  12.2282366071429 8.837890625  C 12.28515625 8.779296875  12.3578869047619 8.75  12.4464285714286 8.75  L 13.0535714285714 8.75  C 13.1421130952381 8.75  13.21484375 8.779296875  13.2717633928571 8.837890625  Z M 16.8197544642857 0.185546874999999  C 16.9399181547619 0.309244791666665  17 0.455729166666665  17 0.624999999999999  L 17 5.625  C 17 5.79427083333333  16.9399181547619 5.94075520833333  16.8197544642857 6.064453125  C 16.6995907738095 6.18815104166667  16.5572916666667 6.25  16.3928571428571 6.25  C 16.2284226190476 6.25  16.0861235119048 6.18815104166667  15.9659598214286 6.064453125  L 14.2963169642857 4.345703125  L 8.11104910714286 10.712890625  C 8.04780505952381 10.7779947916667  7.97507440476191 10.810546875  7.89285714285714 10.810546875  C 7.81063988095238 10.810546875  7.73790922619048 10.7779947916667  7.67466517857143 10.712890625  L 6.59319196428571 9.599609375  C 6.52994791666667 9.53450520833333  6.49832589285714 9.45963541666667  6.49832589285714 9.375  C 6.49832589285714 9.29036458333333  6.52994791666667 9.21549479166667  6.59319196428571 9.150390625  L 12.7784598214286 2.783203125  L 11.1088169642857 1.064453125  C 10.9886532738095 0.940755208333333  10.9285714285714 0.794270833333333  10.9285714285714 0.624999999999999  C 10.9285714285714 0.455729166666665  10.9886532738095 0.309244791666665  11.1088169642857 0.185546874999999  C 11.2289806547619 0.0618489583333343  11.3712797619048 0  11.5357142857143 0  L 16.3928571428571 0  C 16.5572916666667 0  16.6995907738095 0.0618489583333343  16.8197544642857 0.185546874999999  Z " fill-rule="nonzero" fill="#000000" stroke="none" transform="matrix(1 0 0 1 707 341 )" />
  </g>
</svg>