<?xml version="1.0" encoding="utf-8"?>
<svg version="1.1" xmlns:xlink="http://www.w3.org/1999/xlink" width="14px" height="12px" xmlns="http://www.w3.org/2000/svg">
  <g transform="matrix(1 0 0 1 -224 -212 )">
    <path d="M 10.9296875 7.0703125  C 10.9765625 7.1171875  11 7.17708333333333  11 7.25  L 11 9.75  C 11 10.3697916666667  10.7799479166667 10.8997395833333  10.33984375 11.33984375  C 9.89973958333333 11.7799479166667  9.36979166666667 12  8.75 12  L 2.25 12  C 1.63020833333333 12  1.10026041666667 11.7799479166667  0.66015625 11.33984375  C 0.220052083333333 10.8997395833333  0 10.3697916666667  0 9.75  L 0 3.25  C 0 2.63020833333333  0.220052083333333 2.10026041666667  0.66015625 1.66015625  C 1.10026041666667 1.22005208333333  1.63020833333333 1  2.25 1  L 7.75 1  C 7.82291666666667 1  7.8828125 1.0234375  7.9296875 1.0703125  C 7.9765625 1.1171875  8 1.17708333333333  8 1.25  L 8 1.75  C 8 1.82291666666667  7.9765625 1.8828125  7.9296875 1.9296875  C 7.8828125 1.9765625  7.82291666666667 2  7.75 2  L 2.25 2  C 1.90625 2  1.61197916666667 2.12239583333333  1.3671875 2.3671875  C 1.12239583333333 2.61197916666667  1 2.90625  1 3.25  L 1 9.75  C 1 10.09375  1.12239583333333 10.3880208333333  1.3671875 10.6328125  C 1.61197916666667 10.8776041666667  1.90625 11  2.25 11  L 8.75 11  C 9.09375 11  9.38802083333333 10.8776041666667  9.6328125 10.6328125  C 9.87760416666667 10.3880208333333  10 10.09375  10 9.75  L 10 7.25  C 10 7.17708333333333  10.0234375 7.1171875  10.0703125 7.0703125  C 10.1171875 7.0234375  10.1770833333333 7  10.25 7  L 10.75 7  C 10.8229166666667 7  10.8828125 7.0234375  10.9296875 7.0703125  Z M 13.8515625 0.1484375  C 13.9505208333333 0.247395833333332  14 0.364583333333332  14 0.5  L 14 4.5  C 14 4.63541666666667  13.9505208333333 4.75260416666667  13.8515625 4.8515625  C 13.7526041666667 4.95052083333333  13.6354166666667 5  13.5 5  C 13.3645833333333 5  13.2473958333333 4.95052083333333  13.1484375 4.8515625  L 11.7734375 3.4765625  L 6.6796875 8.5703125  C 6.62760416666667 8.62239583333333  6.56770833333333 8.6484375  6.5 8.6484375  C 6.43229166666667 8.6484375  6.37239583333333 8.62239583333333  6.3203125 8.5703125  L 5.4296875 7.6796875  C 5.37760416666667 7.62760416666667  5.3515625 7.56770833333333  5.3515625 7.5  C 5.3515625 7.43229166666667  5.37760416666667 7.37239583333333  5.4296875 7.3203125  L 10.5234375 2.2265625  L 9.1484375 0.8515625  C 9.04947916666667 0.752604166666666  9 0.635416666666666  9 0.5  C 9 0.364583333333332  9.04947916666667 0.247395833333332  9.1484375 0.1484375  C 9.24739583333333 0.0494791666666674  9.36458333333333 0  9.5 0  L 13.5 0  C 13.6354166666667 0  13.7526041666667 0.0494791666666674  13.8515625 0.1484375  Z " fill-rule="nonzero" fill="#000000" stroke="none" transform="matrix(1 0 0 1 224 212 )" />
  </g>
</svg>