<?xml version="1.0" encoding="utf-8"?>
<svg version="1.1" xmlns:xlink="http://www.w3.org/1999/xlink" width="12px" height="18px" xmlns="http://www.w3.org/2000/svg">
  <g transform="matrix(1 0 0 1 -38 -662 )">
    <path d="M 3.046875 16.546875  C 3.265625 16.328125  3.375 16.0625  3.375 15.75  C 3.375 15.4375  3.265625 15.171875  3.046875 14.953125  C 2.828125 14.734375  2.5625 14.625  2.25 14.625  C 1.9375 14.625  1.671875 14.734375  1.453125 14.953125  C 1.234375 15.171875  1.125 15.4375  1.125 15.75  C 1.125 16.0625  1.234375 16.328125  1.453125 16.546875  C 1.671875 16.765625  1.9375 16.875  2.25 16.875  C 2.5625 16.875  2.828125 16.765625  3.046875 16.546875  Z M 3.046875 3.046875  C 3.265625 2.828125  3.375 2.5625  3.375 2.25  C 3.375 1.9375  3.265625 1.671875  3.046875 1.453125  C 2.828125 1.234375  2.5625 1.125  2.25 1.125  C 1.9375 1.125  1.671875 1.234375  1.453125 1.453125  C 1.234375 1.671875  1.125 1.9375  1.125 2.25  C 1.125 2.5625  1.234375 2.828125  1.453125 3.046875  C 1.671875 3.265625  1.9375 3.375  2.25 3.375  C 2.5625 3.375  2.828125 3.265625  3.046875 3.046875  Z M 10.546875 4.546875  C 10.765625 4.328125  10.875 4.0625  10.875 3.75  C 10.875 3.4375  10.765625 3.171875  10.546875 2.953125  C 10.328125 2.734375  10.0625 2.625  9.75 2.625  C 9.4375 2.625  9.171875 2.734375  8.953125 2.953125  C 8.734375 3.171875  8.625 3.4375  8.625 3.75  C 8.625 4.0625  8.734375 4.328125  8.953125 4.546875  C 9.171875 4.765625  9.4375 4.875  9.75 4.875  C 10.0625 4.875  10.328125 4.765625  10.546875 4.546875  Z M 11.34375 2.15625  C 11.78125 2.59375  12 3.125  12 3.75  C 12 4.15625  11.8984375 4.533203125  11.6953125 4.880859375  C 11.4921875 5.228515625  11.21875 5.5  10.875 5.6953125  C 10.859375 7.9375  9.9765625 9.5546875  8.2265625 10.546875  C 7.703125 10.84375  6.91015625 11.16015625  5.84765625 11.49609375  C 4.84765625 11.80859375  4.185546875 12.0859375  3.861328125 12.328125  C 3.537109375 12.5703125  3.375 12.9609375  3.375 13.5  L 3.375 13.8046875  C 3.71875 14  3.9921875 14.271484375  4.1953125 14.619140625  C 4.3984375 14.966796875  4.5 15.34375  4.5 15.75  C 4.5 16.375  4.28125 16.90625  3.84375 17.34375  C 3.40625 17.78125  2.875 18  2.25 18  C 1.625 18  1.09375 17.78125  0.65625 17.34375  C 0.21875 16.90625  0 16.375  0 15.75  C 0 15.34375  0.1015625 14.966796875  0.3046875 14.619140625  C 0.5078125 14.271484375  0.78125 14  1.125 13.8046875  L 1.125 4.1953125  C 0.78125 4  0.5078125 3.728515625  0.3046875 3.380859375  C 0.1015625 3.033203125  0 2.65625  0 2.25  C 0 1.625  0.21875 1.09375  0.65625 0.656250000000001  C 1.09375 0.218749999999998  1.625 0  2.25 0  C 2.875 0  3.40625 0.218749999999998  3.84375 0.656250000000001  C 4.28125 1.09375  4.5 1.625  4.5 2.25  C 4.5 2.65625  4.3984375 3.033203125  4.1953125 3.380859375  C 3.9921875 3.728515625  3.71875 4  3.375 4.1953125  L 3.375 10.01953125  C 3.796875 9.81640625  4.3984375 9.59375  5.1796875 9.3515625  C 5.609375 9.21875  5.951171875 9.103515625  6.205078125 9.005859375  C 6.458984375 8.908203125  6.734375 8.787109375  7.03125 8.642578125  C 7.328125 8.498046875  7.55859375 8.34375  7.72265625 8.1796875  C 7.88671875 8.015625  8.044921875 7.81640625  8.197265625 7.58203125  C 8.349609375 7.34765625  8.458984375 7.076171875  8.525390625 6.767578125  C 8.591796875 6.458984375  8.625 6.1015625  8.625 5.6953125  C 8.28125 5.5  8.0078125 5.228515625  7.8046875 4.880859375  C 7.6015625 4.533203125  7.5 4.15625  7.5 3.75  C 7.5 3.125  7.71875 2.59375  8.15625 2.15625  C 8.59375 1.71875  9.125 1.5  9.75 1.5  C 10.375 1.5  10.90625 1.71875  11.34375 2.15625  Z " fill-rule="nonzero" fill="#000000" stroke="none" transform="matrix(1 0 0 1 38 662 )" />
  </g>
</svg>